<?xml version="1.0" encoding="UTF-8"?>
<svg width="700pt" height="700pt" version="1.1" viewBox="0 0 700 700" xmlns="http://www.w3.org/2000/svg">
 <path d="m521.85 233.62c-8.8789-41.348-35.973-76.469-73.715-95.551-37.742-19.078-82.09-20.078-120.65-2.7109-38.562 17.363-67.211 51.23-77.938 92.137h-39.551c-31.262 0-60.148 16.676-75.777 43.75s-15.629 60.426 0 87.5 44.516 43.75 75.777 43.75h280c27.332-0.097656 53.051-12.961 69.523-34.777 16.469-21.812 21.797-50.07 14.406-76.387-7.3945-26.316-26.66-47.664-52.078-57.711zm-31.852 133.88h-280c-18.758 0-36.09-10.008-45.465-26.25-9.3789-16.242-9.3789-36.258 0-52.5 9.375-16.242 26.707-26.25 45.465-26.25h53.898c4.2461 0.042969 8.3633-1.4609 11.586-4.2305 3.2188-2.7695 5.3203-6.6133 5.9141-10.82 4.3008-34.379 25.281-64.426 56.078-80.301 30.797-15.875 67.441-15.535 97.938 0.90625 30.5 16.441 50.922 46.867 54.586 81.32 0.45703 3.4844 1.957 6.75 4.2969 9.375 2.3398 2.6211 5.418 4.4766 8.8281 5.3242 16.754 4.1992 30.375 16.367 36.422 32.551 6.0469 16.18 3.7461 34.297-6.1523 48.457-9.8945 14.156-26.121 22.539-43.395 22.418z"/>
</svg>
