<?xml version="1.0" encoding="UTF-8"?>
<svg width="700pt" height="700pt" version="1.1" viewBox="0 0 700 700" xmlns="http://www.w3.org/2000/svg">
 <g>
  <path d="m521.85 181.12c-8.8789-41.348-35.973-76.469-73.715-95.551-37.742-19.078-82.09-20.078-120.65-2.7109-38.562 17.363-67.211 51.23-77.938 92.137h-39.551c-31.262 0-60.148 16.676-75.777 43.75s-15.629 60.426 0 87.5 44.516 43.75 75.777 43.75h280c27.332-0.097656 53.051-12.961 69.523-34.777 16.469-21.812 21.797-50.07 14.406-76.387-7.3945-26.316-26.66-47.664-52.078-57.711zm-31.852 133.88h-280c-18.758 0-36.09-10.008-45.465-26.25-9.3789-16.242-9.3789-36.258 0-52.5 9.375-16.242 26.707-26.25 45.465-26.25h53.898c4.2461 0.042969 8.3633-1.4609 11.586-4.2305 3.2188-2.7695 5.3203-6.6133 5.9141-10.82 4.3008-34.379 25.281-64.426 56.078-80.301 30.797-15.875 67.441-15.535 97.938 0.90625 30.5 16.441 50.922 46.867 54.586 81.32 0.45703 3.4844 1.957 6.75 4.2969 9.375 2.3398 2.6211 5.418 4.4766 8.8281 5.3242 16.754 4.1992 30.375 16.367 36.422 32.551 6.0469 16.18 3.7461 34.297-6.1523 48.457-9.8945 14.156-26.121 22.539-43.395 22.418z"/>
  <path d="m222.43 372.57c-3.2852-3.3125-7.7578-5.1758-12.426-5.1758s-9.1406 1.8633-12.426 5.1758c-1.5469 1.7031-2.7891 3.6562-3.6758 5.7773-0.97656 2.0742-1.457 4.3516-1.3984 6.6484-0.027344 4.6602 1.8047 9.1406 5.0938 12.445 3.2891 3.3047 7.7578 5.1602 12.422 5.1562 4.6602-0.003906 9.125-1.8672 12.41-5.1758 3.1953-3.3555 5.0078-7.793 5.0742-12.426-0.027344-2.2852-0.50391-4.5469-1.3984-6.6484-0.88672-2.1211-2.1289-4.0742-3.6758-5.7773z"/>
  <path d="m292.43 372.57c-3.2852-3.3125-7.7578-5.1758-12.426-5.1758s-9.1406 1.8633-12.426 5.1758c-1.5938 1.6641-2.8398 3.6289-3.6758 5.7773-0.89453 2.1016-1.3711 4.3633-1.3984 6.6484 0.066406 4.6328 1.8789 9.0703 5.0742 12.426 3.3047 3.2734 7.7734 5.1016 12.426 5.0742 4.6406 0 9.0938-1.8438 12.375-5.125s5.125-7.7344 5.125-12.375c-0.027344-2.2852-0.50391-4.5469-1.3984-6.6484-0.83594-2.1484-2.082-4.1133-3.6758-5.7773z"/>
  <path d="m366.1 378.35c-0.38281-1.1172-0.91406-2.1758-1.5781-3.1523l-2.1016-2.625h0.003906c-3.2852-3.3125-7.7578-5.1758-12.426-5.1758s-9.1406 1.8633-12.426 5.1758c-0.75 0.83203-1.4531 1.7109-2.0977 2.625-0.66406 0.97656-1.1953 2.0352-1.5781 3.1523-0.50391 0.99219-0.85547 2.0508-1.0469 3.1484-0.085937 1.1641-0.085937 2.3359 0 3.5 0.0625 4.6328 1.875 9.0703 5.0742 12.426 1.6641 1.5938 3.625 2.8398 5.7734 3.6758 1.9961 0.85156 4.1328 1.3281 6.3008 1.3984 4.6406 0 9.0938-1.8438 12.375-5.125s5.125-7.7344 5.125-12.375c0.085938-1.1641 0.085938-2.3359 0-3.5-0.30078-1.1172-0.77344-2.1797-1.3984-3.1484z"/>
  <path d="m413.35 368.9c-2.1484 0.83594-4.1133 2.082-5.7773 3.6758-3.3125 3.2852-5.1758 7.7578-5.1758 12.426s1.8633 9.1406 5.1758 12.426c1.6641 1.5938 3.6289 2.8398 5.7773 3.6758 4.2344 1.8711 9.0625 1.8711 13.297 0 2.1484-0.83594 4.1133-2.082 5.7773-3.6758 3.3125-3.2852 5.1758-7.7578 5.1758-12.426s-1.8633-9.1406-5.1758-12.426c-2.4609-2.4258-5.5859-4.0742-8.9805-4.7266-3.3945-0.65234-6.9102-0.28906-10.094 1.0508z"/>
  <path d="m499.8 370.48c-0.97656-0.66406-2.0352-1.1953-3.1523-1.5781-1.0391-0.53125-2.1641-0.88672-3.3242-1.0469-2.2461-0.52344-4.5781-0.52344-6.8242 0l-3.1484 1.0508v-0.003906c-1.1172 0.38281-2.1758 0.91406-3.1523 1.5781l-2.625 2.1016v-0.003906c-3.1953 3.3555-5.0078 7.793-5.0742 12.426-0.078125 1.1641-0.078125 2.3359 0 3.5 0.19141 1.0977 0.54688 2.1562 1.0508 3.1484 0.34766 1.0781 0.88281 2.082 1.5742 2.9766 0.60547 1 1.3086 1.9375 2.1016 2.8008l2.625 2.1016v-0.003906c0.97266 0.66406 2.0352 1.1953 3.1484 1.5781l3.1484 1.0508h6.8242l0.003906-0.003906c1.1562-0.16016 2.2812-0.51563 3.3242-1.0469 1.1133-0.38281 2.1719-0.91406 3.1484-1.5781l2.625-2.1016 2.1016-2.8008v0.003906c0.69141-0.89453 1.2266-1.8984 1.5742-2.9766 0.75-0.94531 1.3398-2.0117 1.75-3.1484 0.078125-1.1641 0.078125-2.3359 0-3.5-0.066406-4.6328-1.8789-9.0703-5.0742-12.426z"/>
  <path d="m222.43 425.07c-3.2852-3.3125-7.7578-5.1758-12.426-5.1758s-9.1406 1.8633-12.426 5.1758c-1.5469 1.7031-2.7891 3.6562-3.6758 5.7773-0.97656 2.0742-1.457 4.3516-1.3984 6.6484-0.085938 1.1641-0.085938 2.3359 0 3.5 0.19141 1.0977 0.54688 2.1562 1.0508 3.1484 0.38281 1.1172 0.91016 2.1758 1.5742 3.1523 0.64453 0.91406 1.3477 1.793 2.1016 2.625 3.2852 3.3125 7.7578 5.1758 12.422 5.1758 4.668 0 9.1406-1.8633 12.426-5.1758l2.1016-2.625c0.66016-0.97656 1.1914-2.0352 1.5742-3.1523 0.75-0.94531 1.3398-2.0117 1.75-3.1484 0.085938-1.1641 0.085938-2.3359 0-3.5-0.027344-2.2852-0.50391-4.5469-1.3984-6.6484-0.88672-2.1211-2.1289-4.0742-3.6758-5.7773z"/>
  <path d="m292.43 425.07c-3.2852-3.3125-7.7578-5.1758-12.426-5.1758s-9.1406 1.8633-12.426 5.1758c-1.5469 1.7031-2.7891 3.6562-3.6758 5.7773-1.8711 4.2344-1.8711 9.0625 0 13.297 0.88672 2.1211 2.1289 4.0742 3.6758 5.7773l2.625 2.1016v-0.003906c0.97656 0.66406 2.0352 1.1953 3.1523 1.5781l3.1484 1.0508h3.5v-0.003906c4.6328-0.0625 9.0703-1.875 12.426-5.0742 1.5469-1.6992 2.7891-3.6523 3.6758-5.7734 1.8711-4.2383 1.8711-9.0664 0-13.301-0.92187-1.9961-2.1641-3.8281-3.6758-5.4258z"/>
  <path d="m366.1 430.85c-0.38281-1.1172-0.91406-2.1758-1.5781-3.1523l-2.1016-2.625h0.003906c-3.2852-3.3125-7.7578-5.1758-12.426-5.1758s-9.1406 1.8633-12.426 5.1758c-0.75 0.83203-1.4531 1.7109-2.0977 2.625-0.66406 0.97656-1.1953 2.0352-1.5781 3.1523-0.50391 0.99219-0.85547 2.0508-1.0469 3.1484-0.085937 1.1641-0.085937 2.3359 0 3.5 0.0625 4.6328 1.875 9.0703 5.0742 12.426 1.6641 1.5938 3.625 2.8398 5.7734 3.6758 1.9961 0.85156 4.1328 1.3281 6.3008 1.3984 4.6406 0 9.0938-1.8438 12.375-5.125s5.125-7.7344 5.125-12.375c0.085938-1.1641 0.085938-2.3359 0-3.5-0.30078-1.1172-0.77344-2.1797-1.3984-3.1484z"/>
  <path d="m432.43 425.07c-2.4609-2.4258-5.5859-4.0742-8.9805-4.7266-3.3945-0.65234-6.9102-0.28906-10.094 1.0508-4.3984 1.5938-7.8594 5.0547-9.4531 9.4531-1.8711 4.2344-1.8711 9.0625 0 13.297 1.5938 4.3984 5.0547 7.8594 9.4531 9.4531 2.1016 0.89453 4.3633 1.3711 6.6484 1.3984 4.6328-0.066406 9.0703-1.8789 12.426-5.0742 1.5938-1.6641 2.8398-3.6289 3.6758-5.7773 1.8711-4.2344 1.8711-9.0625 0-13.297-0.83594-2.1484-2.082-4.1133-3.6758-5.7773z"/>
  <path d="m506.1 430.85c-0.35156-1.0781-0.88281-2.082-1.5781-2.9766l-2.1016-2.8008-2.625-2.1016 0.003906 0.003906c-0.97656-0.66406-2.0352-1.1953-3.1523-1.5781-1.0391-0.53125-2.1641-0.88672-3.3242-1.0469-2.2461-0.52344-4.5781-0.52344-6.8242 0l-3.1484 1.0508v-0.003906c-1.1172 0.38281-2.1758 0.91406-3.1523 1.5781l-2.625 2.1016v-0.003906c-0.79297 0.86328-1.4961 1.8008-2.0977 2.8008-0.69531 0.89453-1.2266 1.8984-1.5781 2.9766-0.50391 0.99219-0.85547 2.0508-1.0469 3.1484-0.078124 1.1641-0.078124 2.3359 0 3.5 0.0625 4.6328 1.875 9.0703 5.0742 12.426l2.625 2.1016v-0.003906c0.97656 0.66406 2.0352 1.1953 3.1484 1.5781l3.1484 1.0508h6.8242l0.003906-0.003906c1.1602-0.16016 2.2812-0.51563 3.3242-1.0469 1.1133-0.38281 2.1758-0.91406 3.1484-1.5781l2.625-2.1016v0.003906c3.0703-3.4062 4.7578-7.8398 4.7266-12.426 0.078125-1.1641 0.078125-2.3359 0-3.5-0.30078-1.1172-0.77344-2.1797-1.3984-3.1484z"/>
  <path d="m226.1 483.35c-0.38281-1.1172-0.91406-2.1758-1.5781-3.1523l-2.1016-2.625h0.003906c-3.2852-3.3125-7.7578-5.1758-12.426-5.1758s-9.1406 1.8633-12.426 5.1758c-0.75 0.83203-1.4531 1.7109-2.0977 2.625-0.66406 0.97656-1.1953 2.0352-1.5781 3.1523-0.625 0.96875-1.0977 2.0312-1.3984 3.1484-0.085938 1.1641-0.085938 2.3359 0 3.5-0.058594 2.2969 0.42188 4.5742 1.3984 6.6484 0.88672 2.1211 2.1289 4.0742 3.6758 5.7773 3.2852 3.3125 7.7578 5.1758 12.426 5.1758s9.1406-1.8633 12.426-5.1758c1.5469-1.7031 2.7891-3.6562 3.6758-5.7773 0.89453-2.1016 1.3711-4.3633 1.3984-6.6484 0.085938-1.1641 0.085938-2.3359 0-3.5-0.30078-1.1172-0.77344-2.1797-1.3984-3.1484z"/>
  <path d="m267.57 477.57c-3.1953 3.3555-5.0078 7.793-5.0742 12.426 0.027344 2.2852 0.50391 4.5469 1.3984 6.6484 0.83594 2.1484 2.082 4.1133 3.6758 5.7773 0.83203 0.75 1.7109 1.4531 2.625 2.0977 0.97656 0.66406 2.0352 1.1953 3.1523 1.5781l3.1484 1.0508h3.5v-0.003906c4.6328-0.0625 9.0703-1.875 12.426-5.0742 1.5938-1.6641 2.8398-3.625 3.6758-5.7734 0.85156-1.9961 1.3281-4.1328 1.3984-6.3008 0.027344-4.6602-1.8047-9.1406-5.0938-12.445-3.2891-3.3047-7.7578-5.1602-12.422-5.1562-4.6602 0.003906-9.125 1.8672-12.41 5.1758z"/>
  <path d="m366.1 483.35c-0.38281-1.1172-0.91406-2.1758-1.5781-3.1523l-2.1016-2.625h0.003906c-3.2852-3.3125-7.7578-5.1758-12.426-5.1758s-9.1406 1.8633-12.426 5.1758c-0.75 0.83203-1.4531 1.7109-2.0977 2.625-0.66406 0.97656-1.1953 2.0352-1.5781 3.1523-0.50391 0.99219-0.85547 2.0508-1.0469 3.1484-0.085937 1.1641-0.085937 2.3359 0 3.5 0.0625 4.6328 1.875 9.0703 5.0742 12.426 1.6641 1.5938 3.625 2.8398 5.7734 3.6758 1.9961 0.85156 4.1328 1.3281 6.3008 1.3984 4.6406 0 9.0938-1.8438 12.375-5.125s5.125-7.7344 5.125-12.375c0.085938-1.1641 0.085938-2.3359 0-3.5-0.30078-1.1172-0.77344-2.1797-1.3984-3.1484z"/>
  <path d="m413.35 473.9c-2.1484 0.83594-4.1133 2.082-5.7773 3.6758-3.1953 3.3555-5.0078 7.793-5.0742 12.426 0.027344 2.2852 0.50391 4.5469 1.3984 6.6484 0.88672 2.1211 2.1289 4.0742 3.6758 5.7773 1.6641 1.5938 3.6289 2.8398 5.7773 3.6758 2.0742 0.97656 4.3516 1.457 6.6484 1.3984 4.6602 0.027344 9.1406-1.8047 12.445-5.0938 3.3047-3.2891 5.1602-7.7578 5.1562-12.422-0.003906-4.6602-1.8672-9.125-5.1758-12.41-2.4609-2.4258-5.5859-4.0742-8.9805-4.7266-3.3945-0.65234-6.9102-0.28906-10.094 1.0508z"/>
  <path d="m502.43 477.57c-0.83203-0.75-1.7109-1.4531-2.625-2.0977-0.97656-0.66406-2.0352-1.1953-3.1523-1.5781-1.0391-0.53125-2.1641-0.88672-3.3242-1.0469-2.2461-0.52344-4.5781-0.52344-6.8242 0l-3.1484 1.0508v-0.003906c-1.1172 0.38281-2.1758 0.91406-3.1523 1.5781-0.91406 0.64453-1.793 1.3477-2.625 2.0977-1.5469 1.7031-2.7891 3.6562-3.6758 5.7773-0.97656 2.0742-1.457 4.3516-1.3984 6.6484 0.066406 4.6328 1.8789 9.0703 5.0742 12.426 0.83203 0.75 1.7109 1.4531 2.625 2.0977 0.97656 0.66406 2.0352 1.1953 3.1523 1.5781l3.1484 1.0508h6.8242v-0.003906c1.1602-0.16016 2.2852-0.51563 3.3242-1.0469 1.1172-0.38281 2.1758-0.91406 3.1523-1.5781 0.91406-0.64453 1.793-1.3477 2.625-2.0977 3.1953-3.3555 5.0078-7.793 5.0742-12.426-0.027344-2.2852-0.50391-4.5469-1.3984-6.6484-0.88672-2.1211-2.1289-4.0742-3.6758-5.7773z"/>
 </g>
</svg>
