<?xml version="1.0" encoding="UTF-8"?>
<svg width="700pt" height="700pt" version="1.1" viewBox="0 0 700 700" xmlns="http://www.w3.org/2000/svg">
 <g>
  <path d="m157.5 142.1c19.719-0.55859 39.23 4.1523 56.523 13.648 22.016 11.902 46.727 17.93 71.75 17.5 25.023 0.42969 49.738-5.5977 71.75-17.5 17.348-9.5156 36.922-14.23 56.703-13.648 19.719-0.55859 39.23 4.1523 56.523 13.648 22.016 11.902 46.727 17.93 71.75 17.5 6.2539 0 12.031-3.3359 15.156-8.75s3.125-12.086 0-17.5-8.9023-8.75-15.156-8.75c-19.723 0.58203-39.242-4.1328-56.523-13.648-22.016-11.906-46.727-17.934-71.75-17.5-25.082-0.45312-49.855 5.5742-71.926 17.5-17.285 9.5156-36.805 14.23-56.527 13.648-19.75 0.44922-39.266-4.3828-56.523-14-22.016-11.902-46.727-17.93-71.75-17.5-6.2539 0-12.031 3.3359-15.156 8.75s-3.125 12.086 0 17.5 8.9023 8.75 15.156 8.75z"/>
  <path d="m542.5 207.9c-19.723 0.58203-39.242-4.1289-56.523-13.648-22.016-11.902-46.727-17.93-71.75-17.5-25.082-0.45312-49.855 5.5742-71.926 17.5-17.285 9.5195-36.805 14.23-56.527 13.648-19.719 0.55859-39.23-4.1523-56.523-13.648-22.016-11.902-46.727-17.93-71.75-17.5-6.2539 0-12.031 3.3359-15.156 8.75s-3.125 12.086 0 17.5 8.9023 8.75 15.156 8.75c19.719-0.55469 39.23 4.1562 56.523 13.648 22.016 11.906 46.727 17.934 71.75 17.5 25.023 0.43359 49.738-5.5938 71.75-17.5 17.348-9.5156 36.922-14.227 56.703-13.648 19.719-0.55469 39.23 4.1562 56.523 13.648 22.016 11.906 46.727 17.934 71.75 17.5 6.2539 0 12.031-3.332 15.156-8.75 3.125-5.4141 3.125-12.082 0-17.5-3.125-5.4141-8.9023-8.75-15.156-8.75z"/>
  <path d="m542.5 277.9c-19.723 0.58203-39.242-4.1289-56.523-13.648-22.016-11.902-46.727-17.93-71.75-17.5-25.082-0.45312-49.855 5.5742-71.926 17.5-17.285 9.5195-36.805 14.23-56.527 13.648-19.719 0.55859-39.23-4.1523-56.523-13.648-22.016-11.902-46.727-17.93-71.75-17.5-6.2539 0-12.031 3.3359-15.156 8.75s-3.125 12.086 0 17.5 8.9023 8.75 15.156 8.75c19.719-0.55469 39.23 4.1562 56.523 13.648 22.016 11.906 46.727 17.934 71.75 17.5 25.023 0.43359 49.738-5.5938 71.75-17.5 17.348-9.5156 36.922-14.227 56.703-13.648 19.719-0.55469 39.23 4.1562 56.523 13.648 22.016 11.906 46.727 17.934 71.75 17.5 6.2539 0 12.031-3.332 15.156-8.75 3.125-5.4141 3.125-12.082 0-17.5-3.125-5.4141-8.9023-8.75-15.156-8.75z"/>
  <path d="m542.5 347.9c-19.723 0.58203-39.242-4.1289-56.523-13.648-22.016-11.902-46.727-17.93-71.75-17.5-25.082-0.45312-49.855 5.5742-71.926 17.5-17.285 9.5195-36.805 14.23-56.527 13.648-19.719 0.55859-39.23-4.1523-56.523-13.648-22.016-11.902-46.727-17.93-71.75-17.5-6.2539 0-12.031 3.3359-15.156 8.75s-3.125 12.086 0 17.5 8.9023 8.75 15.156 8.75c19.719-0.55469 39.23 4.1562 56.523 13.648 22.016 11.906 46.727 17.934 71.75 17.5 25.023 0.43359 49.738-5.5938 71.75-17.5 17.348-9.5156 36.922-14.227 56.703-13.648 19.719-0.55469 39.23 4.1562 56.523 13.648 22.016 11.906 46.727 17.934 71.75 17.5 6.2539 0 12.031-3.332 15.156-8.75 3.125-5.4141 3.125-12.082 0-17.5-3.125-5.4141-8.9023-8.75-15.156-8.75z"/>
  <path d="m542.5 417.9c-19.723 0.58203-39.242-4.1289-56.523-13.648-22.016-11.902-46.727-17.93-71.75-17.5-25.082-0.45312-49.855 5.5742-71.926 17.5-17.285 9.5195-36.805 14.23-56.527 13.648-19.719 0.55859-39.23-4.1523-56.523-13.648-22.016-11.902-46.727-17.93-71.75-17.5-6.2539 0-12.031 3.3359-15.156 8.75s-3.125 12.086 0 17.5 8.9023 8.75 15.156 8.75c19.719-0.55469 39.23 4.1562 56.523 13.648 22.016 11.906 46.727 17.934 71.75 17.5 25.023 0.43359 49.738-5.5938 71.75-17.5 17.348-9.5156 36.922-14.227 56.703-13.648 19.719-0.55469 39.23 4.1562 56.523 13.648 22.016 11.906 46.727 17.934 71.75 17.5 6.2539 0 12.031-3.332 15.156-8.75 3.125-5.4141 3.125-12.082 0-17.5-3.125-5.4141-8.9023-8.75-15.156-8.75z"/>
 </g>
</svg>
